<?xml version="1.0" encoding="UTF-8"?>
<svg version="1.1" xmlns="http://www.w3.org/2000/svg" width="512" height="512">
<path d="M0 0 C0.96988861 0.00182281 1.93977722 0.00364563 2.9390564 0.00552368 C17.29056055 0.05091691 31.25442918 0.5562653 45.375 3.3125 C46.72053955 3.55395752 46.72053955 3.55395752 48.09326172 3.80029297 C91.69811969 11.69055147 132.83490471 31.38014943 166.375 60.3125 C167.12007813 60.94671875 167.86515625 61.5809375 168.6328125 62.234375 C182.13779833 74.04551515 194.80918743 86.79610228 205.375 101.3125 C206.23149066 102.46244831 207.08826433 103.61218589 207.9453125 104.76171875 C213.9859414 112.95339526 219.34505071 121.46895078 224.375 130.3125 C224.73948242 130.94430176 225.10396484 131.57610352 225.47949219 132.22705078 C240.40973018 158.31214001 249.88885054 187.64835114 254.375 217.3125 C254.55160156 218.43495117 254.72820312 219.55740234 254.91015625 220.71386719 C256.5670586 232.32697743 256.77373513 243.84429945 256.75 255.5625 C256.74918427 257.08052216 256.74918427 257.08052216 256.74835205 258.62921143 C256.7076051 275.16367395 255.78386907 291.08314864 252.375 307.3125 C252.16601074 308.32779785 251.95702148 309.3430957 251.74169922 310.38916016 C247.44230793 330.62367364 240.57080395 350.05513904 231.75 368.75 C231.31921143 369.666604 230.88842285 370.58320801 230.44458008 371.52758789 C223.54036935 385.67543277 215.39457397 395.76431116 200.375 401.3125 C191.04496397 403.78781568 181.97186177 402.06189915 172.875 399.5 C171.90691406 399.23896484 170.93882812 398.97792969 169.94140625 398.70898438 C166.1386857 397.67535899 162.3522958 396.63143063 158.60546875 395.40869141 C157.73535156 395.12558105 156.86523438 394.8424707 155.96875 394.55078125 C155.20240234 394.28950439 154.43605469 394.02822754 153.64648438 393.7590332 C150.88500377 393.21617551 149.06256752 393.50951394 146.375 394.3125 C144.20306065 395.94720038 142.17475687 397.60143269 140.125 399.375 C120.80729662 415.2200609 95.89625858 420.1145057 71.375 418.3125 C16.4720263 411.39238469 -35.56209293 386.60915329 -76.28125 349.43359375 C-78.42424312 347.49418497 -80.60844638 345.61920701 -82.8125 343.75 C-86.11124873 340.87349111 -88.97283734 337.78845247 -91.796875 334.44921875 C-93.7418342 332.17594379 -95.77360655 330.00174351 -97.8125 327.8125 C-128.03797745 294.24007871 -147.73435756 251.03874805 -157.625 207.3125 C-157.83527832 206.3937207 -158.04555664 205.47494141 -158.26220703 204.52832031 C-163.70154794 180.0921997 -163.94476163 155.18507717 -152.625 132.3125 C-152.20734375 131.41660156 -151.7896875 130.52070313 -151.359375 129.59765625 C-143.89695198 114.65136647 -130.8995519 100.57744246 -114.85009766 95.07348633 C-109.15966504 93.73078546 -103.48305389 93.79679507 -97.67260742 93.90087891 C-95.56184505 93.93751137 -93.45284534 93.94189588 -91.34179688 93.94140625 C-79.57059521 94.0021097 -70.23127143 94.34865367 -61.21484375 102.48828125 C-58.33011569 105.63407068 -56.41311172 108.91405823 -54.5 112.6875 C-53.93575317 113.77659668 -53.93575317 113.77659668 -53.36010742 114.88769531 C-48.64601167 124.07610576 -44.23003261 133.4133038 -39.83496094 142.75732422 C-38.79531067 144.9528407 -37.73699893 147.1370396 -36.6640625 149.31640625 C-31.0956762 160.81987746 -28.89477089 171.41011463 -32.37890625 184.046875 C-33.31621953 186.57252249 -34.38688286 188.92068279 -35.625 191.3125 C-36.18960938 192.41658203 -36.18960938 192.41658203 -36.765625 193.54296875 C-42.23154412 202.84490942 -51.69392615 209.54227307 -60.625 215.3125 C-59.1107016 220.48228217 -56.85878551 224.94645945 -54.25 229.625 C-53.81373291 230.4075415 -53.37746582 231.19008301 -52.92797852 231.99633789 C-45.75813699 244.59316681 -37.1453785 256.39112935 -27.625 267.3125 C-26.9448584 268.09318848 -26.9448584 268.09318848 -26.25097656 268.88964844 C-19.58326782 276.48379901 -12.65749002 283.1379405 -4.625 289.3125 C-3.65304688 290.10011719 -2.68109375 290.88773437 -1.6796875 291.69921875 C18.27657681 308.42715724 18.27657681 308.42715724 41.375 317.3125 C43.0370409 315.32462734 44.58919297 313.33190321 46.125 311.25 C47.03685316 310.04748858 47.94960676 308.8456594 48.86328125 307.64453125 C50.24565462 305.81544319 51.6191644 303.9816008 52.98046875 302.13671875 C59.2967918 294.0792392 68.11005841 289.56828092 78.0546875 287.6875 C93.66892027 285.92401018 106.58462609 292.66764965 120.125 299.625 C128.40502827 303.83782323 136.68350036 307.99739451 145.21191406 311.6887207 C151.92107393 314.71134612 157.32885767 320.11252364 160.5625 326.75 C162.10920412 331.62806685 162.5149108 336.49278306 162.69140625 341.5859375 C162.73330078 342.73964844 162.77519531 343.89335937 162.81835938 345.08203125 C162.85767578 346.27183594 162.89699219 347.46164062 162.9375 348.6875 C162.98068359 349.90050781 163.02386719 351.11351562 163.06835938 352.36328125 C163.17405513 355.34625032 163.27615321 358.32929742 163.375 361.3125 C167.43229894 362.51828901 171.49650878 363.69888684 175.5625 364.875 C176.71298828 365.21724609 177.86347656 365.55949219 179.04882812 365.91210938 C180.71655273 366.39067383 180.71655273 366.39067383 182.41796875 366.87890625 C183.43914795 367.17740479 184.46032715 367.47590332 185.51245117 367.78344727 C188.61771533 368.35735835 190.41684337 368.41666222 193.375 367.3125 C195.10669616 365.40843878 195.10669616 365.40843878 196.37890625 362.91796875 C196.88309082 362.00966309 197.38727539 361.10135742 197.90673828 360.16552734 C208.86950092 338.86342488 216.45723515 315.95162817 220.375 292.3125 C220.55160156 291.26167236 220.72820312 290.21084473 220.91015625 289.12817383 C222.53498946 278.40645073 222.77517001 267.8266315 222.75 257 C222.74912384 256.07663849 222.74824768 255.15327698 222.74734497 254.20193481 C222.56687106 196.3597329 199.67697119 142.45178086 159.78759766 100.78808594 C158.47908851 99.42122986 157.18237271 98.0431102 155.88671875 96.6640625 C149.26699183 89.79514782 141.98602965 84.02284045 134.375 78.3125 C133.81296875 77.88437012 133.2509375 77.45624023 132.671875 77.01513672 C123.11732998 69.76272361 113.01511609 63.83165702 102.375 58.3125 C101.62621582 57.92175293 100.87743164 57.53100586 100.10595703 57.12841797 C48.05022555 30.30705405 -13.24286096 26.77875993 -68.74414062 44.36376953 C-101.43080962 55.12820985 -130.3731116 73.1787421 -155.14941406 96.89990234 C-156.51627014 98.20841149 -157.8943898 99.50512729 -159.2734375 100.80078125 C-166.14235218 107.42050817 -171.91465955 114.70147035 -177.625 122.3125 C-178.05312988 122.87453125 -178.48125977 123.4365625 -178.92236328 124.015625 C-186.17477639 133.57017002 -192.10584298 143.67238391 -197.625 154.3125 C-198.01574707 155.06128418 -198.40649414 155.81006836 -198.80908203 156.58154297 C-214.67172991 187.3682599 -222.08020261 221.12664341 -222 255.625 C-221.99868576 257.01004227 -221.99868576 257.01004227 -221.99734497 258.42306519 C-221.81369397 317.28352801 -198.13838135 371.07697704 -157.625 413.3125 C-156.84253906 414.13621094 -156.06007813 414.95992188 -155.25390625 415.80859375 C-139.88106787 431.61987316 -121.18485498 444.29496085 -101.625 454.3125 C-100.8820166 454.69889648 -100.1390332 455.08529297 -99.37353516 455.48339844 C-47.32009151 482.31414299 13.9741211 485.8473344 69.48095703 468.27001953 C95.60412514 459.62693995 118.7170221 446.43492394 140.51879883 429.78930664 C146.57276761 425.2223982 150.48834667 423.82012323 157.9375 424.7734375 C162.45828043 425.77322548 165.2355272 427.97656637 168.1875 431.4375 C170.42995764 436.86660797 171.43252517 442.7226141 169.1875 448.3125 C151.87600075 477.28040874 98.86998111 495.78852252 68.375 504.3125 C45.83367138 509.96318728 23.92651817 512.71553134 0.75 512.625 C-0.21955627 512.62317719 -1.18911255 512.62135437 -2.18804932 512.61947632 C-16.51979259 512.57412737 -30.53395512 512.15545422 -44.625 509.3125 C-45.52686035 509.13557617 -46.4287207 508.95865234 -47.35791016 508.77636719 C-53.83082573 507.47752189 -60.23520862 505.97073805 -66.625 504.3125 C-67.45563965 504.09754883 -68.2862793 503.88259766 -69.14208984 503.66113281 C-109.61050039 492.92838092 -146.54181601 471.28690378 -176.625 442.3125 C-177.28435547 441.68037598 -177.94371094 441.04825195 -178.62304688 440.39697266 C-188.11130305 431.25252521 -196.8512044 421.95515991 -204.625 411.3125 C-205.48306152 410.16144983 -206.34113451 409.01040823 -207.19921875 407.859375 C-213.23736829 399.66819386 -218.59595521 391.15445895 -223.625 382.3125 C-223.98948242 381.68069824 -224.35396484 381.04889648 -224.72949219 380.39794922 C-239.65973018 354.31285999 -249.13885054 324.97664886 -253.625 295.3125 C-253.88990234 293.62882324 -253.88990234 293.62882324 -254.16015625 291.91113281 C-255.8170586 280.29802257 -256.02373513 268.78070055 -256 257.0625 C-255.99945618 256.05048523 -255.99891235 255.03847046 -255.99835205 253.99578857 C-255.9576051 237.46132605 -255.03386907 221.54185136 -251.625 205.3125 C-251.41601074 204.29720215 -251.20702148 203.2819043 -250.99169922 202.23583984 C-242.21380189 160.92383315 -223.21113066 122.2919774 -195.625 90.3125 C-194.99078125 89.56742187 -194.3565625 88.82234375 -193.703125 88.0546875 C-181.89198485 74.54970167 -169.14139772 61.87831257 -154.625 51.3125 C-153.47505169 50.45600934 -152.32531411 49.59923567 -151.17578125 48.7421875 C-142.98410474 42.7015586 -134.46854922 37.34244929 -125.625 32.3125 C-124.99319824 31.94801758 -124.36139648 31.58353516 -123.71044922 31.20800781 C-97.68104716 16.30964331 -68.26389511 6.66602458 -38.625 2.3125 C-37.42037109 2.13517334 -36.21574219 1.95784668 -34.97460938 1.77514648 C-23.31732646 0.176175 -11.75313902 -0.0459053 0 0 Z M-87.625 127.3125 C-81.68604797 143.82458633 -74.65181301 159.71038221 -66.625 175.3125 C-65.965 175.3125 -65.305 175.3125 -64.625 175.3125 C-63.21471033 171.21166814 -63.96265518 168.81081936 -65.82290649 164.97114563 C-66.16236298 164.30648788 -66.50181946 163.64183014 -66.8515625 162.95703125 C-67.1962558 162.25535324 -67.5409491 161.55367523 -67.89608765 160.83073425 C-69.00118179 158.588839 -70.12517581 156.35705041 -71.25 154.125 C-71.98433826 152.64320452 -72.71742424 151.16078775 -73.44921875 149.67773438 C-75.18347046 146.17066269 -76.93226908 142.67116877 -78.68908691 139.175354 C-80.01327385 136.5396745 -81.33062857 133.90059161 -82.6484375 131.26171875 C-83.30715335 129.94524328 -83.96594203 128.62880423 -84.625 127.3125 C-85.615 127.3125 -86.605 127.3125 -87.625 127.3125 Z M81.375 321.3125 C81.375 321.9725 81.375 322.6325 81.375 323.3125 C93.35979173 329.21907884 105.33961458 335.09463154 117.75 340.0625 C118.58047852 340.39701172 119.41095703 340.73152344 120.26660156 341.07617188 C124.68201278 342.83302446 124.68201278 342.83302446 129.375 343.3125 C129.375 342.6525 129.375 341.9925 129.375 341.3125 C124.3775257 338.80134653 119.37870871 336.29289301 114.37866211 333.78686523 C112.68005365 332.93505616 110.98180586 332.08252747 109.28393555 331.22924805 C106.83478146 329.99856428 104.3843157 328.77052679 101.93359375 327.54296875 C101.18226669 327.16472458 100.43093964 326.78648041 99.65684509 326.39677429 C90.77449544 321.09834745 90.77449544 321.09834745 81.375 321.3125 Z " fill="#4A6274" transform="translate(255.625,-0.3125)"/>
<path d="M0 0 C2.76768169 1.38384085 2.87999967 2.81339069 3.9609375 5.6875 C4.34427246 6.68475098 4.72760742 7.68200195 5.12255859 8.70947266 C5.53586426 9.79534668 5.94916992 10.8812207 6.375 12 C10.0323459 21.38650675 13.99250887 30.55385298 18.375 39.625 C18.87435059 40.66011719 19.37370117 41.69523437 19.88818359 42.76171875 C21.93025111 46.94365263 23.99033433 51.0544183 26.390625 55.04296875 C28 58 28 58 27.375 60.6875 C26.56618895 62.04777313 25.7548151 63.4065382 24.9375 64.76171875 C23.73020183 67.64414314 23.66261317 70.0031067 23.625 73.125 C23.58246094 74.70667969 23.58246094 74.70667969 23.5390625 76.3203125 C24.70735196 85.64682662 29.94920626 94.15702212 34.25 102.375 C35.12096313 104.03970337 35.12096313 104.03970337 36.00952148 105.73803711 C39.94383923 113.17634803 43.98602749 120.23019816 49 127 C49.67047363 127.92449951 49.67047363 127.92449951 50.35449219 128.86767578 C55.9008228 136.51444603 61.55594708 143.9323621 68.00390625 150.8515625 C69.82385246 152.81040872 71.53717373 154.82295875 73.25 156.875 C92.59531257 178.92068801 129.61359992 208.69794766 159.43359375 212.4296875 C164.52417122 212.62614565 168.61914488 212.65333452 173 209.875 C174.485 208.946875 174.485 208.946875 176 208 C180.15213182 209.14648416 183.97394967 211.50308551 187.79125977 213.47875977 C203.76413414 221.71209627 220.32848439 228.33638235 237 235 C226.6691706 243.93790858 212.57365349 247.55427748 199.109375 247.25 C192.31126162 246.70341802 185.66745907 245.38700623 179 244 C178.19240234 243.83371094 177.38480469 243.66742188 176.55273438 243.49609375 C140.55903754 235.92142645 105.47391199 220.51706605 77 197 C75.99453125 196.19691406 74.9890625 195.39382813 73.953125 194.56640625 C59.92754496 183.20891447 46.86329761 170.26261981 36.21923828 155.66796875 C34.98696102 153.98216213 33.72793445 152.31905295 32.46484375 150.65625 C17.81902025 131.09746202 7.30732924 108.44620544 -0.24316406 85.30029297 C-0.92660136 83.22308452 -1.64043079 81.16000185 -2.3671875 79.09765625 C-5.17953241 70.7741634 -7.09714707 62.36572226 -8.8125 53.75 C-9.03180176 52.67282715 -9.25110352 51.5956543 -9.47705078 50.48583984 C-12.9232322 32.32037508 -10.10843415 16.95143725 -1 1 C-0.67 0.67 -0.34 0.34 0 0 Z " fill="#5DB1FA" transform="translate(137,139)"/>
</svg>
