<?xml version="1.0" encoding="UTF-8"?>
<svg version="1.1" xmlns="http://www.w3.org/2000/svg" width="512" height="512">
<path d="M0 0 C0.82642444 -0.00205263 1.65284888 -0.00410527 2.50431648 -0.0062201 C5.30361598 -0.0119233 8.1028668 -0.01042879 10.90217113 -0.00901413 C12.91736174 -0.01159586 14.93255183 -0.01460848 16.94774121 -0.01801753 C22.50894159 -0.02611329 28.07012909 -0.02787853 33.63133466 -0.028615 C39.61986634 -0.03046108 45.60839127 -0.03800614 51.59691906 -0.04475021 C65.385834 -0.05906184 79.17474715 -0.06486238 92.9636677 -0.06944216 C99.77447586 -0.07177648 106.58528318 -0.07537894 113.39609069 -0.07913754 C136.70046846 -0.09197415 160.00484576 -0.10269345 183.30922699 -0.10614014 C184.77269553 -0.10636177 186.23616406 -0.10658356 187.6996326 -0.10680549 C189.16667913 -0.10702613 190.63372567 -0.10724661 192.1007722 -0.10746694 C195.04402721 -0.10790949 197.98728222 -0.10835661 200.93053722 -0.10880661 C201.66029573 -0.108916 202.39005424 -0.10902539 203.14192665 -0.1091381 C226.81101057 -0.11276974 250.48006389 -0.12869325 274.1491361 -0.15199697 C299.16101235 -0.17657785 324.17287111 -0.19031216 349.1847598 -0.19150805 C351.92899526 -0.19167952 354.67323071 -0.19189495 357.41746616 -0.19214249 C358.43106187 -0.19222614 358.43106187 -0.19222614 359.46513425 -0.19231148 C370.35239681 -0.19346343 381.23962802 -0.2044976 392.12687999 -0.21902954 C403.06443713 -0.23337649 414.00195929 -0.23638866 424.93952409 -0.22858956 C430.86815205 -0.2246707 436.79667426 -0.2256727 442.72528934 -0.23964691 C448.14788925 -0.25231193 453.57030316 -0.25125385 458.99290254 -0.2390562 C460.95927309 -0.2370863 462.92565649 -0.24023668 464.89200894 -0.24890056 C467.55637812 -0.25990081 470.22008012 -0.25257108 472.88442993 -0.24050903 C473.65524809 -0.24810423 474.42606625 -0.25569942 475.22024253 -0.26352477 C479.69073691 -0.2195645 482.58138135 0.3540335 486.13097668 3.13142776 C487.40969743 5.68886926 487.25990083 7.48964215 487.26519775 10.35438633 C487.2696556 11.46852132 487.27411344 12.58265631 487.27870637 13.73055297 C487.27842983 15.58200472 487.27842983 15.58200472 487.2781477 17.47085953 C487.28182439 18.77421633 487.28550107 20.07757313 487.28928918 21.42042559 C487.2993266 25.05071564 487.3030288 28.68098914 487.30567849 32.3112911 C487.30957666 36.22225041 487.31915567 40.13319656 487.32789135 44.04414749 C487.34767478 53.49840858 487.35772665 62.95267078 487.36661914 72.4069474 C487.37100101 76.85976753 487.37636827 81.31258647 487.38160801 85.76540565 C487.39862601 100.57084818 487.4131181 115.37628996 487.42035675 130.18174076 C487.42226665 134.025891 487.42418698 137.87004122 487.42614269 141.71419144 C487.42662643 142.66963774 487.42711017 143.62508404 487.42760857 144.60948326 C487.43590092 160.07177545 487.46122182 175.53399006 487.49372337 190.9962484 C487.52682606 206.87418029 487.54480862 222.75207282 487.54800099 238.63003939 C487.55016367 247.54346724 487.55887617 256.45678214 487.58446217 265.37017632 C487.60621345 272.96530153 487.61419806 280.5602864 487.60449538 288.15543924 C487.59996278 292.02745787 487.60177558 295.89918723 487.62125683 299.77116585 C487.63897753 303.32412567 487.63781969 306.87658711 487.62235954 310.42955288 C487.61888739 312.30676634 487.63494348 314.18398558 487.65196401 316.0611251 C487.54133584 330.79480227 482.55160588 344.60637205 472.38097668 355.44392776 C461.22379652 365.76431941 447.70599299 371.30098195 432.53312206 371.26285553 C431.39212809 371.26593448 431.39212809 371.26593448 430.22808373 371.26907563 C427.670552 371.27474537 425.11307413 371.27328842 422.55553722 371.27186966 C420.70687422 371.27445329 418.85821177 371.27746644 417.00955009 371.28087306 C411.92259205 371.28894618 406.8356481 371.2907328 401.74868441 371.29147053 C396.26532233 371.29332047 390.78196758 371.30086736 385.29860973 371.30760574 C373.30721799 371.3211904 361.31582958 371.3272136 349.32443142 371.3316164 C341.84086823 371.33437782 334.35730633 371.33861491 326.87374401 371.34312057 C306.16367712 371.35531193 285.45361118 371.36564787 264.74354076 371.36899567 C263.40459488 371.3692173 262.06564899 371.36943908 260.72670311 371.36966102 C259.3845224 371.36988166 258.04234169 371.37010214 256.70016098 371.37032247 C254.00750319 371.37076502 251.3148454 371.37121213 248.62218761 371.37166214 C247.62075566 371.37182623 247.62075566 371.37182623 246.59909277 371.37199363 C224.93863087 371.37562639 203.2782024 371.391556 181.61775331 371.4148525 C158.72011306 371.43943468 135.82248624 371.45316096 112.92483139 371.45436358 C100.44139368 371.45528158 87.95799976 371.46106542 75.47457409 371.4791832 C64.84865032 371.49455063 54.22278388 371.49972444 43.59685111 371.49144509 C38.17248998 371.48752706 32.74824442 371.48852432 27.32389736 371.50250244 C22.3621667 371.51517197 17.40063928 371.5141054 12.43890917 371.50191173 C10.64019095 371.49994265 8.84145867 371.50308851 7.04276025 371.51175609 C4.6045343 371.52276529 2.16703624 371.51542037 -0.27116871 371.50336456 C-1.32744239 371.51475735 -1.32744239 371.51475735 -2.40505493 371.5263803 C-6.7173152 371.48010452 -9.43443156 370.76664577 -12.86902332 368.13142776 C-14.22559138 365.41829165 -13.99827423 363.29787623 -14.0032444 360.25863457 C-14.00770224 358.99961346 -14.01216009 357.74059236 -14.01675302 356.4434191 C-14.01666371 355.03323912 -14.01647384 353.62305914 -14.01619434 352.21287918 C-14.01949194 350.72494993 -14.02321729 349.23702157 -14.02733582 347.74909437 C-14.03737554 343.64536602 -14.04107577 339.54165231 -14.04372513 335.43791342 C-14.04762228 331.01791986 -14.05720093 326.59793795 -14.065938 322.17795181 C-14.08571774 311.49717935 -14.09576993 300.81640591 -14.10466579 290.1356197 C-14.10904568 285.11032013 -14.11441321 280.08502163 -14.11965466 275.0597229 C-14.13666744 258.36273352 -14.15116317 241.66574481 -14.1584034 224.96874809 C-14.1603134 220.63397725 -14.16223372 216.2992064 -14.16418934 211.96443558 C-14.16467308 210.88700389 -14.16515682 209.8095722 -14.16565522 208.69949107 C-14.17396136 191.23296652 -14.19930791 173.76651032 -14.23177002 156.30001564 C-14.26480001 138.382455 -14.28284842 120.46492915 -14.28604764 102.54733789 C-14.28821636 92.48116403 -14.29701797 82.41508988 -14.32250881 72.34894562 C-14.34416033 63.77896793 -14.35229365 55.20911418 -14.34254203 46.63911225 C-14.33798132 42.26393022 -14.3399857 37.8890042 -14.35930347 33.51385689 C-14.37682222 29.51173249 -14.3760303 25.51005298 -14.36040618 21.5079246 C-14.35801282 20.05704263 -14.36244237 18.60613075 -14.37423483 17.15529473 C-14.38923297 15.18888514 -14.37735486 13.22232473 -14.36400795 11.25590324 C-14.36547316 9.61485931 -14.36547316 9.61485931 -14.36696798 7.94066298 C-13.75017816 4.46094359 -12.58796084 3.31238101 -9.86902332 1.13142776 C-6.74660061 -0.42978359 -3.4274681 -0.00779697 0 0 Z " fill="#474D55" transform="translate(20.869023323059082,68.86857223510742)"/>
<path d="M0 0 C2.82206566 1.28589771 4.87858925 2.6283303 7.06905746 4.81737518 C7.94314416 5.68363864 7.94314416 5.68363864 8.83488917 6.56740236 C9.46524428 7.20221891 10.09559938 7.83703546 10.74505615 8.49108887 C11.76086191 9.50221465 11.76086191 9.50221465 12.797189 10.53376722 C15.06977735 12.79836517 17.33513472 15.07006075 19.60058594 17.34179688 C21.22635609 18.96485768 22.85255156 20.58749255 24.47914124 22.20973206 C28.89875259 26.62021187 33.31199755 31.03701144 37.723876 35.45522499 C42.33467765 40.07108092 46.9503464 44.68206569 51.56524658 49.29382324 C59.80946395 57.53416669 68.04862186 65.77954823 76.2858161 74.02691144 C83.76047936 81.5105162 91.24037933 88.98885321 98.72412109 96.46337891 C107.41071536 105.13928087 116.09395289 113.81851747 124.77224374 122.50272608 C129.36773611 127.10134366 133.96458607 131.69858225 138.56493378 136.29234314 C142.88678793 140.6084413 147.203761 144.92936165 151.51693535 149.25413322 C153.10517104 150.84502455 154.69513171 152.43419581 156.28689003 154.02156258 C158.45019079 156.17944221 160.60730613 158.34331543 162.76287842 160.50891113 C163.40215641 161.14372768 164.0414344 161.77854423 164.70008445 162.43259764 C169 166.7716997 169 166.7716997 169 169 C167.50565577 169.80229137 166.00413528 170.59121867 164.5 171.375 C163.6646875 171.81585938 162.829375 172.25671875 161.96875 172.7109375 C155.80730647 175.38630114 150.10572715 176.25006278 143.42508698 176.24609566 C142.70336253 176.24840335 141.98163808 176.25071103 141.23804319 176.25308865 C138.83100475 176.25836264 136.42423643 176.24942641 134.01721191 176.24050903 C132.26964108 176.24138163 130.52207051 176.24313362 128.77450132 176.24568737 C123.98107834 176.25015419 119.18774493 176.24216632 114.39433336 176.23213124 C109.2219649 176.22348948 104.04960143 176.22641742 98.87722778 176.22793579 C89.91863306 176.22898418 80.96006749 176.22271236 72.0014801 176.21146011 C59.0488905 176.19520188 46.09631498 176.18999677 33.14371628 176.18748413 C12.12868047 176.18310754 -8.88633981 176.1697994 -29.90136719 176.15087891 C-50.31477786 176.13251919 -70.7281843 176.11836313 -91.14160156 176.10986328 C-92.40001191 176.10933783 -93.65842225 176.10881239 -94.95496625 176.10827102 C-101.26807921 176.10566093 -107.58119221 176.10313352 -113.89430523 176.10064721 C-166.26288089 176.07991583 -218.63143969 176.04469126 -271 176 C-266.84401272 171.04407827 -262.52103578 166.37967113 -257.93850708 161.81825256 C-257.25142729 161.13031835 -256.56434749 160.44238413 -255.8564471 159.73360342 C-253.56958651 157.44510485 -251.27918711 155.16018231 -248.98876953 152.87524414 C-247.34237037 151.22912724 -245.69619175 149.58278973 -244.05021667 147.93624878 C-239.59220654 143.47795219 -235.13112382 139.0227417 -230.66947794 134.568084 C-226.47628684 130.38051713 -222.28540823 126.19063827 -218.09451447 122.00077241 C-209.79738826 113.70583106 -201.49803459 105.4131221 -193.19726562 97.12182617 C-185.13717006 89.07091938 -177.07813273 81.01895571 -169.02050781 72.96557617 C-168.52325589 72.46858697 -168.02600397 71.97159778 -167.51368381 71.4595483 C-165.01895049 68.96612008 -162.52423787 66.47267115 -160.02953553 63.97921193 C-139.35623186 43.31626324 -118.67926932 22.65697829 -98 2 C-94.14020477 3.81585704 -91.13742554 6.27974993 -87.9375 9.0625 C-86.77276001 10.06192629 -85.6073856 11.06061364 -84.44140625 12.05859375 C-83.86148926 12.55601074 -83.28157227 13.05342773 -82.68408203 13.56591797 C-79.39750442 16.36460699 -76.04392017 19.08089292 -72.6953125 21.8046875 C-70.83024731 23.32376959 -68.9712505 24.8503214 -67.1171875 26.3828125 C-64.42487769 28.60561869 -61.71378865 30.80352731 -59 33 C-58.34 33.56460938 -57.68 34.12921875 -57 34.7109375 C-54.0191602 37.11956252 -52.48703418 38.02183257 -48.6015625 37.84765625 C-44.71482924 36.9328828 -43.07944521 35.93275387 -40.125 33.3125 C-39.1865625 32.50167969 -38.248125 31.69085938 -37.28125 30.85546875 C-36.50587891 30.17556885 -36.50587891 30.17556885 -35.71484375 29.48193359 C-32.41020752 26.62613321 -29.00647868 23.88889309 -25.625 21.125 C-19.74222865 16.28952287 -13.89735885 11.41257428 -8.10986328 6.46337891 C-5.47071698 4.21262536 -2.80290965 2.04392699 0 0 Z " fill="#DEEFF6" transform="translate(307,247)"/>
<path d="M0 0 C142.89 0 285.78 0 433 0 C433 0.66 433 1.32 433 2 C430.99330762 3.70172394 428.97506887 5.29546573 426.875 6.875 C421.72979762 10.82494546 416.71383663 14.87599217 411.8125 19.125 C405.95921724 24.19060578 400.01337049 29.12477862 394 34 C390.32953962 36.99536798 386.66372344 39.99639714 383 43 C382.36255859 43.52255371 381.72511719 44.04510742 381.06835938 44.58349609 C373.69278506 50.63360989 366.32812623 56.69299751 359.0625 62.875 C354.71368071 66.57420039 350.30498965 70.18245167 345.83203125 73.73046875 C339.91430621 78.47281116 334.08591133 83.32561957 328.23779297 88.15332031 C324.66088205 91.1050718 321.08031669 94.05238133 317.5 97 C316.08331453 98.16664383 314.66664789 99.33331053 313.25 100.5 C270.75 135.5 270.75 135.5 268.62402344 137.25073242 C267.21051797 138.41484354 265.79710616 139.5790684 264.38378906 140.7434082 C260.79452429 143.70012504 257.20354178 146.65471204 253.609375 149.60546875 C247.05779118 154.98730955 240.52239003 160.38327382 234.0625 165.875 C233.0237048 166.75292055 231.98465076 167.63053494 230.9453125 168.5078125 C228.9938846 170.15902073 227.05101273 171.82039821 225.1171875 173.4921875 C223.79074219 174.60980469 223.79074219 174.60980469 222.4375 175.75 C221.67308594 176.40484375 220.90867187 177.0596875 220.12109375 177.734375 C218 179 218 179 216.05908203 178.72949219 C212.60676883 177.50640565 210.12853529 174.90657222 207.4375 172.5 C206.18054817 171.39875645 204.92272654 170.29850492 203.6640625 169.19921875 C203.04305664 168.65442871 202.42205078 168.10963867 201.78222656 167.54833984 C197.61136669 163.92483391 193.29121877 160.47902088 189 157 C180.38547236 149.96990634 171.80265024 142.90154062 163.22167969 135.83056641 C159.6483795 132.88632412 156.07415572 129.9432036 152.5 127 C151.08332863 125.83333904 149.66666197 124.66667237 148.25 123.5 C147.54875 122.9225 146.8475 122.345 146.125 121.75 C110 92 73.875 62.25 37.75 32.5 C37.0480249 31.92193604 36.3460498 31.34387207 35.62280273 30.74829102 C34.21332859 29.58748085 32.80398505 28.42651209 31.39477539 27.26538086 C27.74414575 24.25776225 24.09094239 21.25335207 20.43359375 18.25390625 C19.68078125 17.63580078 18.92796875 17.01769531 18.15234375 16.38085938 C16.73002167 15.2131505 15.30691152 14.04640049 13.8828125 12.88085938 C3.68987215 4.50736893 3.68987215 4.50736893 0 1 C0 0.67 0 0.34 0 0 Z " fill="#DEEFF6" transform="translate(41,87)"/>
<path d="M0 0 C4.89226073 3.66919555 9.52586614 7.21879572 14.125 11.1875 C18.64207338 15.05709745 23.2367296 18.79362968 27.9375 22.4375 C33.41500456 26.69032513 38.71012262 31.11665528 43.95410156 35.65332031 C49.21927435 40.20658242 54.5934497 44.61566305 60 49 C61.83403254 50.499145 63.66735981 51.99915322 65.5 53.5 C68.1789992 55.69225146 70.85824208 57.88419468 73.5390625 60.07421875 C81.30249693 66.41865686 89.04077542 72.79346714 96.77832031 79.16943359 C99.64816395 81.53405861 102.51860088 83.89796257 105.38916016 86.26171875 C106.79780158 87.42173806 108.20633002 88.5818946 109.61474609 89.7421875 C113.2044898 92.69932261 116.79596696 95.65430872 120.390625 98.60546875 C126.94216373 103.9872725 133.47943586 109.38117074 139.9375 114.875 C144.28833821 118.57496179 148.6922017 122.19423286 153.16796875 125.7421875 C157.00737057 128.8031175 160.81575259 131.90167296 164.625 135 C165.34921143 135.58894043 166.07342285 136.17788086 166.81958008 136.78466797 C168.54663727 138.18947118 170.27345473 139.5945677 172 141 C170.7022245 143.85612283 169.33267026 145.91715906 167.11736202 148.13152695 C166.52530277 148.72818499 165.93324352 149.32484304 165.32324308 149.93958163 C164.34664939 150.90845998 164.34664939 150.90845998 163.35032654 151.89691162 C162.65920291 152.59044967 161.96807927 153.28398772 161.2560125 153.99854207 C158.93379535 156.32640504 156.60448434 158.6470373 154.27514648 160.96777344 C152.61104791 162.63294465 150.94738231 164.29854866 149.28411865 165.96455383 C144.76203118 170.49149478 140.23370835 175.01215117 135.70412707 179.53159237 C131.45148971 183.77547154 127.20402795 188.02452881 122.95598698 192.27300778 C114.54125563 200.68823971 106.1217028 209.09863114 97.69946289 217.50634766 C89.51939753 225.67231446 81.34285394 233.84178631 73.17016602 242.01513672 C72.41459891 242.77076376 72.41459891 242.77076376 71.64376783 243.54165599 C70.88952934 244.29595501 70.88952934 244.29595501 70.12005371 245.06549239 C61.29441313 253.89178704 52.46589243 262.71519485 43.63575935 271.53699493 C39.87062136 275.29859251 36.10634328 279.06104669 32.34271049 282.82415009 C27.91695207 287.24890789 23.48866607 291.67112039 19.05836487 296.09132957 C17.42761688 297.71914384 15.79772728 299.34781854 14.1687336 300.97738838 C11.95568765 303.19092105 9.73961748 305.40137899 7.52268982 307.61102295 C6.54275005 308.59328562 6.54275005 308.59328562 5.54301351 309.59539199 C1.11417867 314 1.11417867 314 0 314 C0 210.38 0 106.76 0 0 Z " fill="#DEEFF6" transform="translate(24,96)"/>
<path d="M0 0 C0.33 0 0.66 0 1 0 C1.0457874 37.30066044 1.08102427 74.60131664 1.10213066 111.9019995 C1.10463204 116.30665531 1.10722069 120.71131107 1.10986328 125.1159668 C1.1103879 125.99284675 1.11091252 126.86972669 1.11145304 127.77317876 C1.12015335 141.96759938 1.13592127 156.16200379 1.15430559 170.35641479 C1.17301503 184.92344709 1.18411894 199.4904709 1.18817699 214.05751473 C1.19091988 223.0446336 1.19958014 232.03170665 1.21583293 241.01881141 C1.2264127 247.1833481 1.22959837 253.34786112 1.22700275 259.51240622 C1.22572301 263.06789545 1.22767154 266.62330464 1.23841095 270.1787796 C1.24998237 274.03799328 1.24596719 277.89710328 1.24050903 281.7563324 C1.24633472 282.87405562 1.2521604 283.99177885 1.25816262 285.14337248 C1.23232672 291.90412683 1.08920237 298.82159527 -2 305 C-4.80012153 303.72217674 -6.85040226 302.39905532 -9.02220535 300.2238903 C-9.88061677 299.37145203 -9.88061677 299.37145203 -10.75636983 298.50179279 C-11.37505209 297.87728485 -11.99373435 297.25277691 -12.63116455 296.60934448 C-13.29611773 295.94610015 -13.96107091 295.28285582 -14.64617419 294.59951317 C-16.87729754 292.37168902 -19.1011887 290.13678254 -21.32519531 287.90185547 C-22.92139461 286.30509215 -24.51803418 284.70876886 -26.11508179 283.112854 C-30.4539075 278.77460316 -34.78653018 274.43020435 -39.11808872 270.08469915 C-43.64422853 265.54607442 -48.17601581 261.01309597 -52.70721436 256.47952271 C-60.313243 248.86797998 -67.91576631 241.25295604 -75.515625 233.63525391 C-83.34335888 225.78916069 -91.17319156 217.94517177 -99.00585938 210.10400391 C-99.48870176 209.62063607 -99.97154415 209.13726823 -100.46901813 208.63925289 C-102.89132071 206.21434022 -105.31366465 203.78946887 -107.73602915 201.36461806 C-127.83043501 181.24948035 -147.91750895 161.1270327 -168 141 C-166.14892574 136.9002616 -163.43375659 134.54861936 -160 131.75 C-159.11779785 131.01777222 -159.11779785 131.01777222 -158.21777344 130.27075195 C-154.12848411 126.88802689 -149.98983411 123.56756228 -145.83203125 120.26953125 C-139.91430621 115.52718884 -134.08591133 110.67438043 -128.23779297 105.84667969 C-124.66088205 102.8949282 -121.08031669 99.94761867 -117.5 97 C-116.08331453 95.83335617 -114.66664789 94.66668947 -113.25 93.5 C-87.75 72.5 -87.75 72.5 -85.62402344 70.74926758 C-84.21051797 69.58515646 -82.79710616 68.4209316 -81.38378906 67.2565918 C-77.79452429 64.29987496 -74.20354178 61.34528796 -70.609375 58.39453125 C-64.0578381 53.012729 -57.52049232 47.61891182 -51.0625 42.125 C-46.71364726 38.4258395 -42.30499057 34.81754906 -37.83203125 31.26953125 C-31.93785331 26.546059 -26.13282219 21.71245409 -20.30810547 16.90380859 C-17.9273474 14.94007352 -15.54411626 12.97937763 -13.16015625 11.01953125 C-12.37970947 10.37773926 -11.5992627 9.73594727 -10.79516602 9.07470703 C-9.28681615 7.8344619 -7.77819787 6.59454314 -6.26928711 5.35498047 C-5.59260986 4.7982666 -4.91593262 4.24155273 -4.21875 3.66796875 C-3.61998047 3.17578857 -3.02121094 2.6836084 -2.40429688 2.17651367 C-1.03522923 1.06453541 -1.03522923 1.06453541 0 0 Z " fill="#DEEFF6" transform="translate(490,96)"/>
<path d="M0 0 C2.99943905 1.34572887 5.08076179 2.83537101 7.39160156 5.16455078 C8.0319635 5.80506378 8.67232544 6.44557678 9.33209229 7.10549927 C10.01140808 7.79513763 10.69072388 8.484776 11.390625 9.1953125 C12.09523865 9.90275604 12.79985229 10.61019958 13.52581787 11.33908081 C15.7719539 13.59639862 18.01103009 15.86057633 20.25 18.125 C21.77297717 19.65800953 23.29640939 21.19056715 24.8203125 22.72265625 C28.55216815 26.47654573 32.27825351 30.23608914 36 34 C35.21101318 34.78681152 34.42202637 35.57362305 33.60913086 36.38427734 C32.14045039 37.85666834 30.68071996 39.33856541 29.25390625 40.8515625 C13.16042465 57.72555937 -8.26596299 71.7047585 -30 80 C-30.98742187 80.41378906 -31.97484375 80.82757813 -32.9921875 81.25390625 C-48.16425304 86.90894886 -65.41157455 85.54248752 -80 79 C-81.18980469 78.46890625 -82.37960938 77.9378125 -83.60546875 77.390625 C-99.9509813 69.61893092 -114.56536501 58.55288005 -127.5625 46.03125 C-130.1985036 43.62181536 -130.1985036 43.62181536 -135 42 C-178.56 85.56 -222.12 129.12 -267 174 C-60.09 174.495 -60.09 174.495 151 175 C151 175.33 151 175.66 151 176 C11.74 176 -127.52 176 -271 176 C-264.25 168.125 -264.25 168.125 -261.65361214 165.53056431 C-260.76310211 164.63706771 -260.76310211 164.63706771 -259.85460198 163.72552067 C-259.22229066 163.0961222 -258.58997935 162.46672372 -257.93850708 161.81825256 C-257.25142729 161.13031835 -256.56434749 160.44238413 -255.8564471 159.73360342 C-253.56958651 157.44510485 -251.27918711 155.16018231 -248.98876953 152.87524414 C-247.34237037 151.22912724 -245.69619175 149.58278973 -244.05021667 147.93624878 C-239.59220654 143.47795219 -235.13112382 139.0227417 -230.66947794 134.568084 C-226.47628684 130.38051713 -222.28540823 126.19063827 -218.09451447 122.00077241 C-209.79738826 113.70583106 -201.49803459 105.4131221 -193.19726562 97.12182617 C-185.13717006 89.07091938 -177.07813273 81.01895571 -169.02050781 72.96557617 C-168.52325589 72.46858697 -168.02600397 71.97159778 -167.51368381 71.4595483 C-165.01895049 68.96612008 -162.52423787 66.47267115 -160.02953553 63.97921193 C-139.35623186 43.31626324 -118.67926932 22.65697829 -98 2 C-94.14020477 3.81585704 -91.13742554 6.27974993 -87.9375 9.0625 C-86.77276001 10.06192629 -85.6073856 11.06061364 -84.44140625 12.05859375 C-83.86148926 12.55601074 -83.28157227 13.05342773 -82.68408203 13.56591797 C-79.39750442 16.36460699 -76.04392017 19.08089292 -72.6953125 21.8046875 C-70.83024731 23.32376959 -68.9712505 24.8503214 -67.1171875 26.3828125 C-64.42487769 28.60561869 -61.71378865 30.80352731 -59 33 C-58.34 33.56460938 -57.68 34.12921875 -57 34.7109375 C-54.0191602 37.11956252 -52.48703418 38.02183257 -48.6015625 37.84765625 C-44.71482924 36.9328828 -43.07944521 35.93275387 -40.125 33.3125 C-39.1865625 32.50167969 -38.248125 31.69085938 -37.28125 30.85546875 C-36.50587891 30.17556885 -36.50587891 30.17556885 -35.71484375 29.48193359 C-32.41020752 26.62613321 -29.00647868 23.88889309 -25.625 21.125 C-19.74222865 16.28952287 -13.89735885 11.41257428 -8.10986328 6.46337891 C-5.47071698 4.21262536 -2.80290965 2.04392699 0 0 Z " fill="#BAD4E4" transform="translate(307,247)"/>
<path d="M0 0 C4.89226073 3.66919555 9.52586614 7.21879572 14.125 11.1875 C18.64207338 15.05709745 23.2367296 18.79362968 27.9375 22.4375 C33.41500456 26.69032513 38.71012262 31.11665528 43.95410156 35.65332031 C49.21927435 40.20658242 54.5934497 44.61566305 60 49 C61.83403254 50.499145 63.66735981 51.99915322 65.5 53.5 C68.1789992 55.69225146 70.85824208 57.88419468 73.5390625 60.07421875 C81.30249693 66.41865686 89.04077542 72.79346714 96.77832031 79.16943359 C99.64816395 81.53405861 102.51860088 83.89796257 105.38916016 86.26171875 C106.79780158 87.42173806 108.20633002 88.5818946 109.61474609 89.7421875 C113.2044898 92.69932261 116.79596696 95.65430872 120.390625 98.60546875 C126.94216373 103.9872725 133.47943586 109.38117074 139.9375 114.875 C144.28833821 118.57496179 148.6922017 122.19423286 153.16796875 125.7421875 C157.00737057 128.8031175 160.81575259 131.90167296 164.625 135 C165.34921143 135.58894043 166.07342285 136.17788086 166.81958008 136.78466797 C168.54663727 138.18947118 170.27345473 139.5945677 172 141 C170.63886987 144.04581486 169.10669904 146.13839026 166.74365234 148.48339844 C165.75285172 149.47397247 165.75285172 149.47397247 164.74203491 150.48455811 C164.03052277 151.18574768 163.31901062 151.88693726 162.5859375 152.609375 C161.85629791 153.33618469 161.12665833 154.06299438 160.37490845 154.81182861 C158.0462612 157.12929198 155.71075174 159.4396995 153.375 161.75 C151.79381347 163.32115444 150.21307875 164.89276371 148.6328125 166.46484375 C144.7604331 170.31518653 140.88239829 174.15976117 137 178 C130.26528726 174.76754609 125.75260132 168.80880892 120.94140625 163.22265625 C118.71195939 160.67023117 116.41998618 158.18112486 114.125 155.6875 C110.0343944 151.20202448 106.15182157 146.59419456 102.33984375 141.87109375 C100.26262022 139.32224684 98.15008909 136.81253675 96.01416016 134.31323242 C90.32580897 127.65616203 84.86712472 120.8466031 79.49951172 113.92919922 C77.91250272 111.88743023 76.31810145 109.85158876 74.72265625 107.81640625 C67.96481687 99.18197647 61.31700395 90.47295684 54.75805664 81.68652344 C50.11149664 75.46545954 45.40809442 69.29000516 40.6875 63.125 C36.36781583 57.47764066 32.09009197 51.81614574 28 46 C23.05536418 38.98316586 17.84701607 32.17673292 12.61914062 25.36914062 C11.6378418 24.09006836 11.6378418 24.09006836 10.63671875 22.78515625 C10.05623779 22.03113525 9.47575684 21.27711426 8.87768555 20.50024414 C6.52998796 17.37415248 4.27234646 14.18128505 2 11 C1.67 110.99 1.34 210.98 1 314 C0.67 314 0.34 314 0 314 C0 210.38 0 106.76 0 0 Z " fill="#BDD7E7" transform="translate(24,96)"/>
<path d="M0 0 C0.99 0.495 0.99 0.495 2 1 C1.43776641 5.02934074 -0.60224354 7.1270564 -3.25 10.125 C-7.52430865 15.08753158 -11.44349513 20.23385479 -15.25 25.5625 C-15.79503174 26.32522217 -16.34006348 27.08794434 -16.90161133 27.8737793 C-18.02917112 29.45249406 -19.1565286 31.03135334 -20.28369141 32.61035156 C-23.13358836 36.57831619 -26.03447013 40.50832239 -28.9375 44.4375 C-29.51999512 45.22600342 -30.10249023 46.01450684 -30.70263672 46.8269043 C-31.88253306 48.42391434 -33.06254606 50.02083819 -34.24267578 51.61767578 C-35.9775979 53.9696305 -37.70655144 56.32584839 -39.43359375 58.68359375 C-48.14520195 70.56688593 -57.0360933 82.30612006 -66 94 C-66.94925474 95.24085789 -67.89847758 96.48174017 -68.84765625 97.72265625 C-71.22198094 100.822711 -73.60843751 103.91321586 -76 107 C-76.43086914 107.55703613 -76.86173828 108.11407227 -77.30566406 108.68798828 C-82.73284926 115.69338801 -88.26162933 122.58597085 -94.02197266 129.32080078 C-96.84803098 132.625409 -99.59762393 135.97764122 -102.3125 139.375 C-106.61488332 144.67739674 -111.26627279 149.60472403 -115.95678711 154.56030273 C-120.28329 159.15776913 -124.26530434 163.90646851 -128 169 C-132.75085867 165.03627475 -137.23613112 160.90205218 -141.58984375 156.5078125 C-142.17923233 155.91700897 -142.76862091 155.32620544 -143.37586975 154.71749878 C-145.23213727 152.85569596 -147.08487085 150.99042255 -148.9375 149.125 C-150.20614672 147.85132989 -151.4750249 146.57789029 -152.74414062 145.3046875 C-155.83210554 142.20577957 -158.91690929 139.10375699 -162 136 C-160.14892574 131.9002616 -157.43375659 129.54861936 -154 126.75 C-153.41186523 126.26184814 -152.82373047 125.77369629 -152.21777344 125.27075195 C-148.12848411 121.88802689 -143.98983411 118.56756228 -139.83203125 115.26953125 C-133.91430621 110.52718884 -128.08591133 105.67438043 -122.23779297 100.84667969 C-118.66088205 97.8949282 -115.08031669 94.94761867 -111.5 92 C-110.08331453 90.83335617 -108.66664789 89.66668947 -107.25 88.5 C-81.75 67.5 -81.75 67.5 -79.62402344 65.74926758 C-78.21051797 64.58515646 -76.79710616 63.4209316 -75.38378906 62.2565918 C-71.79452429 59.29987496 -68.20354178 56.34528796 -64.609375 53.39453125 C-58.0578381 48.012729 -51.52049232 42.61891182 -45.0625 37.125 C-40.72001005 33.43125173 -36.31810093 29.82783412 -31.8515625 26.28515625 C-21.11080909 17.67784016 -10.55853674 8.82929662 0 0 Z " fill="#BBD6E7" transform="translate(484,101)"/>
<path d="M0 0 C5.46989776 3.9683572 10.64544537 8.20818603 15.77563477 12.60083008 C20.55027539 16.66770855 25.45288268 20.55290106 30.41845703 24.38354492 C33.09920984 26.46040897 35.69002017 28.50980898 38 31 C37.67 31.66 37.34 32.32 37 33 C29.21092542 26.97945926 21.50322105 20.86471505 13.87890625 14.63671875 C13.15711182 14.04777832 12.43531738 13.45883789 11.69165039 12.85205078 C10.24541754 11.67115663 8.80056195 10.4885735 7.35717773 9.30419922 C6.69274658 8.76166504 6.02831543 8.21913086 5.34375 7.66015625 C4.74755859 7.17168213 4.15136719 6.68320801 3.53710938 6.17993164 C1.99324333 4.91750427 1.99324333 4.91750427 0 4 C0 2.68 0 1.36 0 0 Z " fill="#D3E4EC" transform="translate(24,96)"/>
<path d="M0 0 C0.66 0.33 1.32 0.66 2 1 C1.75 2.875 1.75 2.875 1 5 C-0.32467746 5.6837045 -1.66036973 6.34607878 -3 7 C-10.56696754 12.34791548 -17.8088523 18.1611699 -25 24 C-25.66 23.67 -26.32 23.34 -27 23 C-20.18943708 16.75082838 -13.18462055 10.81290896 -6 5 C-3.99321079 3.34120892 -1.99572671 1.67209535 0 0 Z " fill="#D0E2EA" transform="translate(484,101)"/>
<path d="M0 0 C3.77177234 0.595543 5.80638184 2.24058489 8.6875 4.6875 C9.63753906 5.48671875 10.58757812 6.2859375 11.56640625 7.109375 C12.10023926 7.56119141 12.63407227 8.01300781 13.18408203 8.47851562 C15.26172095 10.21928542 17.3615495 11.93094788 19.46484375 13.640625 C20.23417236 14.26751221 21.00350098 14.89439941 21.79614258 15.5402832 C23.33742579 16.79589824 24.88021163 18.04967123 26.42456055 19.30151367 C27.13265869 19.8813501 27.84075684 20.46118652 28.5703125 21.05859375 C29.20727051 21.57736084 29.84422852 22.09612793 30.50048828 22.63061523 C32 24 32 24 33 26 C29.01392011 24.28608358 25.7981403 21.62500414 22.4375 18.9375 C21.82342285 18.45015381 21.2093457 17.96280762 20.57666016 17.46069336 C18.71376762 15.9787264 16.85599436 14.49059391 15 13 C14.4519873 12.56075195 13.90397461 12.12150391 13.33935547 11.66894531 C8.70220761 7.94357176 4.14807914 4.27233036 0 0 Z " fill="#CDDFE8" transform="translate(63,130)"/>
</svg>
