<?xml version="1.0" encoding="UTF-8"?>
<svg version="1.1" xmlns="http://www.w3.org/2000/svg" width="512" height="512">
<path d="M0 0 C2.1527004 -0.0007269 4.30539497 -0.00289089 6.45809388 -0.00549722 C14.06840551 -0.01467313 21.67869999 -0.01884296 29.28901696 -0.01804566 C35.45603585 -0.01751596 41.62299087 -0.02451445 47.78999352 -0.03855348 C221.60790781 -0.42518728 221.60790781 -0.42518728 261.03340173 37.91725707 C277.20401319 54.17578039 287.00484753 75.54562381 290.41011071 98.07301879 C290.53691689 98.89906552 290.66372306 99.72511226 290.79437184 100.57619071 C295.81484636 133.81827946 296.51474907 166.81089922 296.35792565 200.38741088 C296.34186484 205.26932834 296.35203136 210.15105557 296.3616631 215.03297877 C296.40285476 241.24716367 295.92714588 267.11149346 292.90840173 293.16725707 C292.65059912 295.54552655 292.39413398 297.92394145 292.13911462 300.30251098 C288.75834465 331.73124726 277.06416274 360.70967572 252.31074548 381.33131957 C241.84024623 389.53297578 230.58371372 396.23170642 217.97090173 400.54225707 C217.31718591 400.76872924 216.66347009 400.99520141 215.9899447 401.22853637 C201.54060444 405.8157106 186.31284101 406.83852162 171.28340173 407.79225707 C169.40147356 407.918153 167.51955637 408.04421298 165.63764977 408.1704309 C149.73787472 409.2121218 133.83860348 409.8418574 117.90840173 410.16725707 C117.62569421 410.91386596 117.34298669 411.66047484 117.05171227 412.42970824 C116.0580968 414.8088264 115.00408009 416.80851584 113.61543298 418.96803832 C113.15781579 419.6854016 112.7001986 420.40276488 112.22871423 421.14186645 C111.7311361 421.91337035 111.23355798 422.68487426 110.72090173 423.47975707 C109.63300837 425.18376694 108.54580144 426.88821519 107.45918298 428.59303832 C106.88248864 429.49618773 106.30579431 430.39933715 105.71162438 431.32985473 C102.58044372 436.25682218 99.49668536 441.21333338 96.40840173 446.16725707 C90.90662505 454.98127088 85.38075601 463.77940704 79.82246423 472.55788207 C77.78810979 475.77147247 75.76345964 478.99094903 73.74433923 482.21413207 C56.8477003 509.16234517 56.8477003 509.16234517 47.90840173 512.16725707 C40.72326032 512.98277491 33.61297348 513.44092094 27.71333337 508.75978637 C22.27121205 503.95808782 18.43988475 498.12288617 14.78340173 491.91725707 C13.82244997 490.31622299 12.8601656 488.71598814 11.89668298 487.11647582 C11.40506677 486.29840453 10.91345056 485.48033324 10.40693688 484.63747191 C7.97938486 480.63584739 5.47772804 476.68204187 2.97090173 472.72975707 C2.47251794 471.94310668 1.97413415 471.15645629 1.46064782 470.34596801 C0.44899438 468.74985434 -0.56305015 467.15398849 -1.57548499 465.55837035 C-4.08647004 461.59821132 -6.58856016 457.63244171 -9.09159827 453.66725707 C-10.08766761 452.09041873 -11.08376139 450.51359583 -12.07987952 448.93678832 C-14.63742893 444.88754343 -17.19258216 440.83679684 -19.7444303 436.78395629 C-20.75782933 435.17986461 -21.7756541 433.57855938 -22.79814124 431.98024535 C-25.1277369 428.33302242 -27.39115482 424.68097945 -29.49394202 420.89772582 C-29.87204017 420.2432849 -30.25013831 419.58884398 -30.63969398 418.91457152 C-31.63952073 417.17626471 -32.60534165 415.41851917 -33.56816077 413.65944457 C-37.42051012 409.85480234 -40.84184266 410.28103625 -46.09159827 410.16725707 C-47.43391973 410.10517778 -48.77603784 410.03860513 -50.11796546 409.9685266 C-53.25122685 409.80693672 -56.38466342 409.6584799 -59.51908851 409.52126098 C-150.73732181 405.49558827 -150.73732181 405.49558827 -183.03300452 371.10475707 C-202.13861836 349.86790512 -209.58766431 324.55850551 -212.47465491 296.66798949 C-212.77845125 293.73600156 -213.0986329 290.80616512 -213.4216764 287.87624145 C-213.62901566 285.9538186 -213.83542639 284.03129533 -214.04081702 282.10866332 C-214.17830611 280.8390853 -214.17830611 280.8390853 -214.31857276 279.54385924 C-215.95924458 263.57345866 -216.26519009 247.65021175 -216.29472327 231.60866332 C-216.29755065 230.55240186 -216.30037803 229.49614039 -216.30329108 228.40787101 C-216.3181813 222.80544715 -216.3274719 217.20304832 -216.33183265 211.60060668 C-216.33619403 207.05039386 -216.35000958 202.50037314 -216.37284827 197.95021605 C-216.49709325 172.69651314 -216.31040337 147.7317905 -213.47929358 122.61446166 C-212.95784375 117.97797469 -212.49870589 113.33581077 -212.03694129 108.69305968 C-209.63533037 86.00862393 -202.99803577 63.92811877 -188.09159827 46.16725707 C-187.39421546 45.33194457 -186.69683265 44.49663207 -185.97831702 43.63600707 C-161.90221102 15.92496499 -131.89317738 6.05154203 -96.34896827 3.44862914 C-92.38779174 3.18363899 -88.4257312 2.94117221 -84.46220374 2.71413207 C-81.48779023 2.54347297 -78.51435301 2.36033356 -75.54081702 2.17506957 C-50.36831514 0.64121789 -25.21711111 0.00482588 0 0 Z " fill="#48A4DF" transform="translate(216.0915982723236,-0.16725707054138184)"/>
<path d="M0 0 C31.56018298 -0.97996476 60.72358096 9.25489174 83.96875 30.71484375 C101.82394495 47.63416071 112.83762304 69.66613411 116.50170898 93.90576172 C116.62851516 94.73180845 116.75532133 95.55785519 116.88597012 96.40893364 C121.90644463 129.65102239 122.60634734 162.64364215 122.44952393 196.22015381 C122.43346311 201.10207127 122.44362963 205.9837985 122.45326138 210.8657217 C122.49445304 237.0799066 122.01874415 262.94423638 119 289 C118.74219739 291.37826948 118.48573225 293.75668438 118.23071289 296.13525391 C114.84994292 327.56399019 103.15576101 356.54241864 78.40234375 377.1640625 C67.9318445 385.36571871 56.675312 392.06444935 44.0625 396.375 C43.40878418 396.60147217 42.75506836 396.82794434 42.08154297 397.0612793 C27.63220271 401.64845353 12.40443928 402.67126455 -2.625 403.625 C-4.50692816 403.75089593 -6.38884536 403.87695591 -8.27075195 404.00317383 C-24.17052701 405.04486473 -40.06979825 405.67460033 -56 406 C-56.28270752 406.74660889 -56.56541504 407.49321777 -56.85668945 408.26245117 C-57.85030493 410.64156933 -58.90432164 412.64125877 -60.29296875 414.80078125 C-60.75058594 415.51814453 -61.20820313 416.23550781 -61.6796875 416.97460938 C-62.17726563 417.74611328 -62.67484375 418.51761719 -63.1875 419.3125 C-64.27539336 421.01650987 -65.36260028 422.72095812 -66.44921875 424.42578125 C-67.02591309 425.32893066 -67.60260742 426.23208008 -68.19677734 427.16259766 C-71.327958 432.08956511 -74.41171637 437.04607631 -77.5 442 C-83.00177668 450.81401381 -88.52764572 459.61214997 -94.0859375 468.390625 C-96.12029194 471.6042154 -98.14494209 474.82369196 -100.1640625 478.046875 C-117.06070143 504.9950881 -117.06070143 504.9950881 -126 508 C-133.18514141 508.81551784 -140.29542825 509.27366387 -146.19506836 504.5925293 C-151.63718967 499.79083075 -155.46851698 493.9556291 -159.125 487.75 C-160.08595176 486.14896592 -161.04823613 484.54873107 -162.01171875 482.94921875 C-162.50333496 482.13114746 -162.99495117 481.31307617 -163.50146484 480.47021484 C-165.92901686 476.46859032 -168.43067369 472.5147848 -170.9375 468.5625 C-171.43588379 467.77584961 -171.93426758 466.98919922 -172.44775391 466.17871094 C-173.45940735 464.58259727 -174.47145188 462.98673141 -175.48388672 461.39111328 C-177.99487177 457.43095425 -180.49696189 453.46518464 -183 449.5 C-183.99606933 447.92316166 -184.99216311 446.34633876 -185.98828125 444.76953125 C-188.54583066 440.72028636 -191.10098389 436.66953977 -193.65283203 432.61669922 C-194.66623106 431.01260754 -195.68405583 429.41130231 -196.70654297 427.81298828 C-199.03613863 424.16576535 -201.29955654 420.51372238 -203.40234375 416.73046875 C-203.78044189 416.07602783 -204.15854004 415.42158691 -204.5480957 414.74731445 C-205.54792246 413.00900764 -206.51374338 411.2512621 -207.4765625 409.4921875 C-211.32891185 405.68754526 -214.75024439 406.11377918 -220 406 C-221.34232145 405.93792071 -222.68443957 405.87134806 -224.02636719 405.80126953 C-227.15962858 405.63967965 -230.29306515 405.49122282 -233.42749023 405.35400391 C-324.64572354 401.3283312 -324.64572354 401.3283312 -356.94140625 366.9375 C-367.82907294 354.83531016 -378.82756689 338.41668199 -381 322 C-377.2204873 322.64959028 -373.84584858 323.72299638 -370.2734375 325.109375 C-357.0008452 330.19237172 -343.95225938 335.18762187 -330 338 C-328.73478516 338.25797363 -327.46957031 338.51594727 -326.16601562 338.78173828 C-276.88234001 348.59768819 -224.90651752 346.58125725 -177.42260742 329.45239258 C-176.48908447 329.11876709 -175.55556152 328.7851416 -174.59375 328.44140625 C-173.77583984 328.13920166 -172.95792969 327.83699707 -172.11523438 327.52563477 C-170 327 -170 327 -167 328 C-166.0078125 330.0390625 -166.0078125 330.0390625 -165.125 332.625 C-161.2412688 342.83615843 -155.22816488 348.360566 -145.25 352.875 C-135.74934369 356.02929345 -125.77435359 354.38717679 -117 350 C-109.54947879 345.86082155 -105.06291927 339.73253527 -102.1875 331.7421875 C-99.67930903 322.02294748 -100.21918182 312.88556106 -105 304 C-105.763125 303.05125 -106.52625 302.1025 -107.3125 301.125 C-109 299 -109 299 -109.0625 297 C-106.41353856 292.01371964 -101.4493844 288.72448272 -97 285.4375 C-89.89282156 280.06469128 -83.4053408 274.18405292 -77 268 C-76.32356445 267.3507959 -75.64712891 266.7015918 -74.95019531 266.03271484 C-66.02974275 257.43272138 -57.63590476 248.73386356 -50.28710938 238.74462891 C-48.94370336 236.92369199 -47.5752484 235.12359299 -46.203125 233.32421875 C-21.81611667 201.0800619 -5.51950779 162.92135947 2.9375 123.5 C3.12465576 122.6438208 3.31181152 121.7876416 3.50463867 120.90551758 C6.9606665 103.55435309 7.37767158 85.81879101 7.3125 68.1875 C7.31026428 66.68003708 7.31026428 66.68003708 7.3079834 65.14212036 C7.26826366 50.21564845 6.72839659 35.7102149 4 21 C3.73533936 19.51717529 3.73533936 19.51717529 3.46533203 18.00439453 C2.38559678 11.98655612 1.22900503 5.98906003 0 0 Z " fill="#4193D2" transform="translate(390,4)"/>
<path d="M0 0 C10.68667353 10.00815458 19.57133727 23.82951374 20.11328125 38.82421875 C20.3588264 61.89932446 14.00379039 80.2835288 -1.1875 97.75 C-1.6623584 98.30171875 -2.1372168 98.8534375 -2.62646484 99.421875 C-8.46152732 106.1411546 -14.51850721 112.1155417 -21.5234375 117.63671875 C-33.13628561 126.84867011 -44.03166282 136.63744419 -47.1875 151.75 C-47.28706633 153.46164974 -47.34175047 155.17621703 -47.36328125 156.890625 C-47.38712891 157.87933594 -47.41097656 158.86804688 -47.43554688 159.88671875 C-47.47818792 161.94641027 -47.50961498 164.00636741 -47.52929688 166.06640625 C-47.7057954 172.39572533 -48.35902558 177.54474247 -52.1875 182.75 C-54.22265625 184.37109375 -54.22265625 184.37109375 -56.25 185.1875 C-56.92160156 185.47496094 -57.59320313 185.76242187 -58.28515625 186.05859375 C-63.17289807 187.83504201 -67.28104008 188.00381495 -72.4375 188.0625 C-73.27152344 188.09150391 -74.10554688 188.12050781 -74.96484375 188.15039062 C-80.91701257 188.21112704 -84.31596101 187.21086168 -89.1875 183.75 C-97.05550744 174.18080176 -96.1550329 161.44961403 -95.1875 149.75 C-91.90061034 125.95740098 -81.22981622 108.41805132 -62.1875 93.75 C-45.42669259 81.10271495 -45.42669259 81.10271495 -34.1875 63.75 C-33.83171875 62.97785156 -33.4759375 62.20570313 -33.109375 61.41015625 C-30.93539799 55.13694294 -31.03147927 47.29392058 -33.875 41.25 C-38.72715568 33.27979238 -46.53885756 28.69934019 -55.42578125 26.09375 C-59.73991598 25.55677142 -64.03138573 25.52448831 -68.375 25.5 C-69.27025391 25.479375 -70.16550781 25.45875 -71.08789062 25.4375 C-81.29252536 25.37855626 -89.62030791 27.75153216 -97.1875 34.75 C-100.91860595 38.57616597 -104.1687405 42.68535049 -107.3125 47 C-110.34332435 51.11383891 -113.25154157 54.10468052 -118.1875 55.75 C-125.59469213 56.4193907 -132.13029794 56.42642052 -138.1875 51.75 C-143.02496278 47.16159471 -146.75445068 42.77679625 -147.48828125 35.953125 C-147.54385368 21.94887171 -142.30851981 11.3706748 -132.75 1.23046875 C-98.51376949 -31.90978487 -35.48636994 -30.25509656 0 0 Z " fill="#FDFEFE" transform="translate(327.1875,82.25)"/>
<path d="M0 0 C6.67316731 5.72409463 12.36676279 12.22601386 14.26171875 21.01171875 C15.09816029 32.40156099 13.3395081 41.8379317 6.26171875 51.01171875 C-1.0548309 58.47061372 -9.91209433 62.13328245 -20.30078125 62.51171875 C-29.77199125 62.17506437 -37.91127694 58.60381538 -44.73828125 52.01171875 C-51.69790028 43.7895838 -54.42997908 34.65720729 -54.07421875 23.95703125 C-52.87628416 13.45420936 -46.75338573 5.83057356 -38.65625 -0.65625 C-26.97732447 -8.51130642 -11.40134379 -8.27857915 0 0 Z " fill="#FDFEFE" transform="translate(275.73828125,296.98828125)"/>
</svg>
